# xmcd
# 
# Track frame offsets:
#     150
#     16237
#     33907
#     45925
#     63452
#     75330
#     97212
#     117637
#     132502
#     151277
#     167935
# 
# Disc length: 2539
# 
# Revision: 6
# Processed by: cddbd v1.5.2PL0 Copyright (c) Steve Scherf et al.
# Submitted via: fre:ac v1.0.31
# 
DISCID=8a09e90b
DTITLE=Various Artist - Les_Années_80_Commencent
DYEAR=1979
DGENRE=Chanson
TTITLE0=Michel Jonasz - Les années 80 commencent
TTITLE1=Michel_JONASZ - Hello les oiseaux
TTITLE2=Michel_JONASZ - Inspiration
TTITLE3=Michel_JONASZ - Descends
TTITLE4=Michel_JONASZ - Mini-cassette
TTITLE5=Michel_JONASZ - L'ongle cassé contre un nounours aux bras tordus
TTITLE6=Michel_JONASZ - 25 piges dont 5 au cachot
TTITLE7=Michel_JONASZ - Les wagonnets
TTITLE8=Michel_JONASZ - Deux oiseaux dans la nuit
TTITLE9=Michel_JONASZ - Paire de palmes dans l'eau perdue
TTITLE10=Michel_JONASZ - T'as d'la peine poussin
EXTD=YEAR: 1979
EXTT0=
EXTT1=
EXTT2=
EXTT3=
EXTT4=
EXTT5=
EXTT6=
EXTT7=
EXTT8=
EXTT9=
EXTT10=
PLAYORDER=
